Coordinates
version=1
nRows=4
nColumns=63
inDegrees=yes

Units are S.I. units (second, meters, Newtons, ...)
If the header above contains a line with 'inDegrees', this indicates whether rotational values are in degrees (yes) or radians (no).

endheader
time	pelvis_tilt	pelvis_list	pelvis_rotation	pelvis_tx	pelvis_ty	pelvis_tz	hip_flexion_r	hip_adduction_r	hip_rotation_r	knee_angle_r	knee_angle_r_beta	ankle_angle_r	subtalar_angle_r	mtp_angle_r	hip_flexion_l	hip_adduction_l	hip_rotation_l	knee_angle_l	knee_angle_l_beta	ankle_angle_l	subtalar_angle_l	mtp_angle_l	L5_S1_Flex_Ext	L5_S1_Lat_Bending	L5_S1_axial_rotation	L4_L5_Flex_Ext	L4_L5_Lat_Bending	L4_L5_axial_rotation	L3_L4_Flex_Ext	L3_L4_Lat_Bending	L3_L4_axial_rotation	L2_L3_Flex_Ext	L2_L3_Lat_Bending	L2_L3_axial_rotation	L1_L2_Flex_Ext	L1_L2_Lat_Bending	L1_L2_axial_rotation	L1_T12_Flex_Ext	L1_T12_Lat_Bending	L1_T12_axial_rotation	Abs_r3	Abs_r2	Abs_r1	Abs_t1	Abs_t2	neck_flexion	neck_bending	neck_rotation	arm_flex_r	arm_add_r	arm_rot_r	elbow_flex_r	pro_sup_r	wrist_flex_r	wrist_dev_r	arm_flex_l	arm_add_l	arm_rot_l	elbow_flex_l	pro_sup_l	wrist_flex_l	wrist_dev_l
      0.00000000	      5.55077062	     -5.05373172	     88.80187645	      0.44972128	      0.65139187	      0.63265949	      3.32711458	      0.39160752	    -10.35551975	     15.20076326	      0.26530337	     32.90959841	      8.34997312	      0.00000000	     -0.89653705	     -2.38811566	     11.41371525	      2.12684793	      0.03712050	     28.19384289	    -11.81309590	      0.00000000	     -0.05712755	      0.22904332	     -0.28173994	     -0.10609157	      0.30462762	     -0.29934868	     -0.09385485	      0.55689593	     -0.29934868	     -0.06529108	      0.55689593	     -0.24652244	     -0.05304864	      0.46706514	     -0.22891370	     -0.03264268	      0.35478810	     -0.21130495	     -0.40805638	      2.59098386	     -1.56695300	      0.00000000	      0.00000000	     27.24608482	     -6.78099396	     -5.06945934	     15.92766674	     -1.88478291	     76.78186237	     31.86796546	      2.04445870	    -14.73629616	     22.37431216	     14.76096005	      1.85757788	     65.63142791	     27.35772803	     80.81808792	     -0.78943165	     13.07105470
      0.01666667	      5.40493763	     -5.06882562	     88.83349072	      0.44954066	      0.65201488	      0.63229213	      3.41933286	      0.28077535	    -10.17658222	     15.24263282	      0.26603413	     33.26216157	      8.57738455	      0.00000000	     -0.80167869	     -2.17862881	     11.07388005	      2.16220002	      0.03773751	     28.14536823	    -11.66388235	      0.00000000	     -0.05231404	      0.20847286	     -0.27235727	     -0.09715241	      0.27726890	     -0.28937960	     -0.08594674	      0.50688090	     -0.28937960	     -0.05978972	      0.50688090	     -0.23831261	     -0.04857882	      0.42511785	     -0.22129028	     -0.02989224	      0.32292446	     -0.20426795	     -0.37367398	      2.35828665	     -1.51476942	      0.00000000	      0.00000000	     27.38034552	     -6.68069267	     -5.33224225	     15.89194226	     -2.13244864	     77.10828656	     32.08110186	      2.18004342	    -14.54963650	     20.93387983	     15.62206036	      1.81173219	     68.30589834	     27.14823200	     84.69433300	     -1.11505593	     12.09722000
      0.03333333	      5.23123201	     -5.11899620	     88.85703548	      0.44951384	      0.65230910	      0.63184846	      3.48727947	      0.15315812	     -9.98342399	     15.19509585	      0.26520445	     33.58896175	      8.63012081	      0.00000000	     -0.69549244	     -1.95522404	     10.72782349	      2.18508239	      0.03813688	     28.07567464	    -11.52815216	      0.00000000	     -0.04258511	      0.18423514	     -0.28375479	     -0.07908480	      0.24503274	     -0.30148947	     -0.06996307	      0.44794932	     -0.30148947	     -0.04867052	      0.44794932	     -0.24828545	     -0.03954453	      0.37569230	     -0.23055077	     -0.02433313	      0.28538024	     -0.21281610	     -0.30418116	      2.08410477	     -1.57815904	      0.00000000	      0.00000000	     27.49205811	     -6.67988620	     -5.46233292	     15.84345543	     -2.21778260	     77.23611416	     32.18138964	      2.35300045	    -14.43915822	     20.12987696	     15.89217307	      1.76036662	     69.26191132	     27.10387006	     86.13790098	     -1.23025863	     11.67135805
      0.05000000	      5.13848636	     -5.09918350	     88.84751026	      0.44961225	      0.65255988	      0.63158215	      3.54743654	      0.11348172	     -9.65700588	     15.28489392	      0.26677172	     33.87211763	      8.36476658	      0.00000000	     -0.54225254	     -1.86991630	      8.06820986	      2.47699682	      0.04323175	     28.89704160	     -8.09221598	      0.00000000	     -0.04811388	      0.16599933	     -0.28257714	     -0.08935229	      0.22077910	     -0.30023822	     -0.07904629	      0.40361076	     -0.30023822	     -0.05498935	      0.40361076	     -0.24725500	     -0.04467855	      0.33850582	     -0.22959393	     -0.02749227	      0.25713296	     -0.21193286	     -0.34367263	      1.87781757	     -1.57160930	      0.00000000	      0.00000000	     27.54131014	     -6.63531718	     -5.83023370	     16.00382615	     -2.16608145	     77.93815207	     31.94536427	      2.36082256	    -13.85381081	     19.65948856	     16.22772948	      1.87475309	     70.93291563	     26.65962279	     85.94434343	     -1.55399951	     10.83594474
